<?xml version="1.0" encoding="UTF-8"?>
<svg width="150pt" height="150pt" version="1.1" viewBox="0 0 600 600" fill='#fa9324' xmlns="http://www.w3.org/2000/svg">
 <path d="m595 227.5v280c0 7.0703-4.2695 13.457-10.797 16.172-2.1719 0.89062-4.4453 1.3281-6.7031 1.3281-4.5508 0-9.0312-1.7852-12.371-5.1289l-59.746-59.746c-3.3086-3.3086-7.6992-5.1289-12.391-5.1289l-230.49 0.003906c-28.945 0-52.5-23.555-52.5-52.5v-52.5h175c0 9.6602 7.8398 17.5 17.5 17.5h122.5c9.6602 0 17.5-7.8398 17.5-17.5s-7.8398-17.5-17.5-17.5h-53.043c12.145-9.0469 21.961-20.984 28.121-35h19.914c9.6602 0 17.5-7.8398 17.5-17.5s-7.8398-17.5-17.5-17.5h-12.496v-87.5h35c28.945 0 52.5 23.555 52.5 52.5zm-175 87.5h-230.49c-4.6719 0-9.082 1.8203-12.391 5.1289l-59.746 59.746c-3.3438 3.3438-7.8242 5.1289-12.371 5.1289-2.2578 0-4.5312-0.4375-6.7031-1.3281-6.5469-2.7109-10.797-9.1016-10.797-16.172v-280c0-28.945 23.555-52.5 52.5-52.5h280c28.945 0 52.5 23.555 52.5 52.5v175c0 28.945-23.555 52.5-52.5 52.5zm-105-105c0-9.6602-7.8398-17.5-17.5-17.5h-122.5c-9.6602 0-17.5 7.8398-17.5 17.5s7.8398 17.5 17.5 17.5h122.5c9.6602 0 17.5-7.8398 17.5-17.5zm87.5-70c0-9.6602-7.8398-17.5-17.5-17.5h-210c-9.6602 0-17.5 7.8398-17.5 17.5s7.8398 17.5 17.5 17.5h210c9.6602 0 17.5-7.8398 17.5-17.5z"/>
</svg>
